# xmcd
#
# Track frame offsets:
#	150
#	19870
#	44758
#	64815
#	84548
#	108206
#	126852
#	143619
#
# Disc length: 2175 seconds
#
# Revision: 0
# Processed by: cddbd v1.5PL3 Copyright (c) Steve Scherf et al.
# Submitted via: dBpowerAMP V4.0
#
DISCID=6a087d08
DTITLE=Habib Koite and Bamada - Baro
DYEAR=1900
DGENRE=Blues
TTITLE0=Sambara Bulaman
TTITLE1=Kanawa
TTITLE2=Batoumambe
TTITLE3=Koniya
TTITLE4=Baro
TTITLE5=Mali Sadio
TTITLE6=Toumaro
TTITLE7=Sambara Bulaman
EXTD=bought in Mali
EXTT0=
EXTT1=
EXTT2=
EXTT3=
EXTT4=
EXTT5=
EXTT6=
EXTT7=
PLAYORDER=
